PathFileType	4	(X/Y/Z)	RBDS022\RBDS022runT45.trc
DataRate	CameraRate	NumFrames	NumMarkers	Units	OrigDataRate	OrigDataStartFrame	OrigNumFrames
150.000000	150.000000	4	32	mm	150.000000	1687	4500
Frame#	Time	L.ASIS			L.Heel.Bottom			L.Heel.Lateral			L.Heel.Top			L.Iliac.Crest			L.MT1			L.MT5			L.PSIS			L.Shank.Bottom.Lateral			L.Shank.Bottom.Medial			L.Shank.Top.Lateral			L.Shank.Top.Medial			L.Thigh.Bottom.Lateral			L.Thigh.Bottom.Medial			L.Thigh.Top.Lateral			L.Thigh.Top.Medial			R.ASIS			R.Heel.Bottom			R.Heel.Lateral			R.Heel.Top			R.Iliac.Crest			R.MT1			R.MT5			R.PSIS			R.Shank.Bottom.Lateral			R.Shank.Bottom.Medial			R.Shank.Top.Lateral			R.Shank.Top.Medial			R.Thigh.Bottom.Lateral			R.Thigh.Bottom.Medial			R.Thigh.Top.Lateral			R.Thigh.Top.Medial			
		X1	Y1	Z1	X2	Y2	Z2	X3	Y3	Z3	X4	Y4	Z4	X5	Y5	Z5	X6	Y6	Z6	X7	Y7	Z7	X8	Y8	Z8	X9	Y9	Z9	X10	Y10	Z10	X11	Y11	Z11	X12	Y12	Z12	X13	Y13	Z13	X14	Y14	Z14	X15	Y15	Z15	X16	Y16	Z16	X17	Y17	Z17	X18	Y18	Z18	X19	Y19	Z19	X20	Y20	Z20	X21	Y21	Z21	X22	Y22	Z22	X23	Y23	Z23	X24	Y24	Z24	X25	Y25	Z25	X26	Y26	Z26	X27	Y27	Z27	X28	Y28	Z28	X29	Y29	Z29	X30	Y30	Z30	X31	Y31	Z31	X32	Y32	Z32	

1688	11.24666666666667	2172.003228099601	884.0446200090506	899.1145606820814	1744.136338067758	472.4488125245376	944.0497987997779	1767.879722357039	449.2932614822096	895.5314631692512	1787.676455118815	458.394838463458	947.6041413673435	2128.030188321795	959.2357858485511	832.4430500190225	1734.488455490521	252.3051572156182	932.5245738223466	1740.109317651728	308.003643722455	832.5430655962804	1996.526287788527	936.6149079648111	934.7101955917193	1878.986372820969	414.6265022784884	870.951519182083	1875.341068099609	452.9035473472628	911.5095190496791	1955.737452497343	435.5960829036513	859.2770026615649	1952.908494373435	472.8831020914199	897.9810682875175	2187.505538986578	529.6634094386358	834.4731075395806	2125.457481853305	514.0488041396848	869.1330826066155	2154.078558160828	632.3980365576786	819.637436833727	2092.904028323198	616.8191346964237	849.1178380430138	2128.362085337722	925.3791296321473	1130.042633727867	1913.20010667152	36.83493269005828	963.9258585967933	1936.650154475773	58.54725073266476	1011.819292351461	1927.816093345749	78.87995275752368	961.1241693170382	2050.771666673265	985.2143656649755	1150.857416891795	2129.940893227189	33.93179755252548	962.7724804027664	2083.684237876934	38.17755978401441	1072.873394874022	1982.778222243411	946.1941381353705	1017.730649172159	2009.239821887093	157.9659030403945	1046.28993774434	1984.66126042474	186.2707532370988	1011.404022439935	2044.865892279388	229.3406022629886	1077.264670099784	2014.751995592795	255.5859098305022	1041.558405427217	2149.937700162226	548.2132975423873	1148.398726387422	2090.923288533768	535.3859047192105	1110.623954051746	2111.84182568736	649.1326657912421	1173.487178553528	2054.027674487378	635.2895594674444	1139.579870674172	
1689	11.25333333333333	2170.327771273736	885.2334636637028	898.4385890735492	1758.873127176811	456.8567461296494	942.6004840215586	1784.504472968562	435.4375238597992	894.1948919310062	1803.060286318851	445.4625822858787	946.524599510829	2123.794731130316	960.7695591777759	832.559213053905	1762.582061361669	237.0759045722867	929.9962608196039	1766.048997522884	293.3226555914927	830.2491554423236	1995.310519557551	938.3052460116025	936.2157630044962	1897.838057796952	406.8866688468337	870.1322283515359	1892.238872091646	444.7600725759121	910.7463801589236	1973.577422821551	431.3958013650913	858.9240238858534	1968.811251400476	468.3996677541523	897.5926375800971	2201.085928453413	536.6209819658801	834.2414247584577	2139.545439413448	517.6123945277924	868.199339329185	2162.644851559578	637.5605712634598	819.9624033370376	2101.866530321751	618.5861521463677	848.3974948617774	2129.037575438126	925.4872609958464	1129.927787393	1883.151615261579	39.5973102925096	963.7809197530456	1906.877083443443	61.09249087199894	1011.722244788267	1897.91165916191	81.54151145141728	961.1301868526897	2052.852666549768	986.4295508396179	1151.766534902355	2099.285099352524	34.44612041184744	962.539800006233	2053.475022937776	38.89261307043542	1072.52033519206	1982.62608045386	948.1598261866056	1019.276705186704	1982.179217702627	160.0208132264586	1045.919281073912	1958.29659243447	189.0347450324134	1011.109998413178	2020.247665121213	230.1887512984104	1076.41516720512	1990.867264734095	257.3440529645771	1040.767724990523	2137.157779050904	545.8739646628432	1146.907162821057	2077.110762924854	535.597972150677	1109.95342301851	2103.533936303564	648.2550770403833	1172.448852447906	2044.840885581868	636.9574435352787	1139.107978679837	
1690	11.26	2168.923671006541	887.5144905473693	897.408031717384	1773.723034625719	439.4112495835167	941.2607988238467	1801.156139862944	419.9690371840402	892.9543922986879	1818.491970167144	431.0279264548448	945.4941235453548	2118.67566073942	963.241207799293	832.6699373437764	1792.13708463303	220.8637875558181	927.8828175242803	1792.801824800276	277.432119293654	828.3086673962036	1994.354927786439	940.5864449668064	937.7891297903361	1916.602995003504	398.4737126812545	869.4721822436458	1908.804728968725	435.7936158408124	910.1425664187203	1990.955481018315	427.0003947930986	858.7426003956712	1984.023037416065	463.5689891167273	897.4026217630607	2213.949427786933	544.9775500835216	834.2268928092882	2153.178989149334	522.7296043955812	867.7191004262704	2170.607395509833	643.8989587101291	820.3603736661892	2110.493852701314	621.6630083667163	847.9958201230784	2130.151107536226	926.1211115936489	1129.628045559688	1853.163768144151	43.31072241710976	963.6803614890481	1877.233527882647	64.34660004812189	1011.735275976445	1868.208230536367	85.13476520006033	961.2925315967506	2055.673897597999	988.4195255753673	1152.609786282757	2068.550523854957	34.87962566711766	962.368115720161	2023.297462636349	39.41251283762149	1072.264029339851	1982.860951668422	950.6778983953936	1020.946203484701	1954.974592300224	162.7179771737629	1045.713057684892	1931.805686171833	192.3327953135172	1010.910870392069	1995.187467703293	231.7104799690027	1075.752995510129	1966.550824245951	259.6552054319249	1040.113854860802	2123.659958276855	544.3110616902654	1145.424317687545	2062.663085060024	536.7646391965771	1109.322434835	2094.882465843727	648.0779046132839	1171.294673082963	2035.37623550161	639.5028064905139	1138.554965794018	
1691	11.26666666666667	2167.857936093586	890.8198954025161	896.0930031345113	1788.964933084566	420.2747387798474	940.0802184937704	1818.060130098353	403.0357613566257	891.8611657197524	1834.191664894942	415.2104243473875	944.5618515909179	2113.010106530137	966.5174164426669	832.76168271423	1823.151817629331	204.0174807270813	926.2157424760686	1820.433666458918	260.6230022854394	826.7536603921487	1993.698857124515	943.3987911413493	939.3446158866213	1935.339649077312	389.432217098486	868.9979031246824	1925.161274328995	426.020119397035	909.7358181201978	2007.880436123058	422.3579311549954	858.7312635521236	1998.618847554625	458.3015017312725	897.4274588985634	2225.921652993782	554.4831917840447	834.4151997274871	2166.136999584661	529.2137898410998	867.6712008028589	2177.888474896494	651.2242249853005	820.789709422912	2118.670319719073	625.9312216855768	847.8842822352062	2131.682872056538	927.2333684896613	1129.182011427883	1823.372047859842	48.17837760561958	963.649832552656	1847.856723054369	68.47433465268774	1011.87727650682	1838.901842585169	89.82691464583436	961.6275886720852	2059.142052544371	991.0015442853701	1153.359031603923	2037.78517137115	35.20698719865142	962.2495033935173	1993.193885432256	39.77548568668269	1072.120224879214	1983.512084262433	953.65479761785	1022.653685944189	1927.847776400617	166.1750056839892	1045.684041656609	1905.400441148634	196.2939088680623	1010.830957964374	1969.938866667499	234.0489468181605	1075.316987051741	1942.031402507165	262.6734278443587	1039.651466719646	2109.665124797733	543.6538330395908	1144.047920219669	2047.85805236347	538.9765787905897	1108.773858702521	2086.034507760073	648.6723821866867	1170.096597386917	2025.821996021749	642.9498911953189	1137.965741557662	
